<mxfile host="Electron" modified="2023-05-23T00:01:45.039Z" agent="Mozilla/5.0 (Windows NT 10.0; WOW64) AppleWebKit/537.36 (KHTML, like Gecko) draw.io/21.1.2 Chrome/106.0.5249.199 Electron/21.4.3 Safari/537.36" etag="c9VJHTdoMA8zUuyCCMkU" version="21.1.2" type="device" pages="2">
  <diagram name="Diagrama" id="8T4zqyXwF0000SmUOu8A">
    <mxGraphModel dx="3312" dy="1997" grid="1" gridSize="10" guides="1" tooltips="1" connect="1" arrows="1" fold="1" page="1" pageScale="1" pageWidth="827" pageHeight="1169" math="0" shadow="0">
      <root>
        <mxCell id="0" />
        <mxCell id="1" parent="0" />
        <mxCell id="Tkfm5KGIFP5zqyFGYU3w-9" value="CLUBE" style="whiteSpace=wrap;html=1;align=center;fillColor=#e1d5e7;strokeColor=#9673a6;" parent="1" vertex="1">
          <mxGeometry x="-1490.25" y="-1060" width="100" height="50" as="geometry" />
        </mxCell>
        <mxCell id="Tkfm5KGIFP5zqyFGYU3w-10" value="PRODUTO" style="whiteSpace=wrap;html=1;align=center;fillColor=#d5e8d4;strokeColor=#82b366;" parent="1" vertex="1">
          <mxGeometry x="-1490" y="-640" width="100" height="50" as="geometry" />
        </mxCell>
        <mxCell id="Tkfm5KGIFP5zqyFGYU3w-11" value="PEDIDO" style="whiteSpace=wrap;html=1;align=center;fillColor=#fff2cc;strokeColor=#d6b656;" parent="1" vertex="1">
          <mxGeometry x="-1147.75" y="-640" width="100" height="50" as="geometry" />
        </mxCell>
        <mxCell id="Tkfm5KGIFP5zqyFGYU3w-12" value="CLIENTE" style="whiteSpace=wrap;html=1;align=center;fillColor=#bac8d3;strokeColor=#23445d;" parent="1" vertex="1">
          <mxGeometry x="-1147.75" y="-985" width="100" height="50" as="geometry" />
        </mxCell>
        <mxCell id="VzMww5PxV1IO6Oh9PiyG-2" value="CNPJ" style="ellipse;whiteSpace=wrap;html=1;align=center;fontStyle=4;" parent="1" vertex="1">
          <mxGeometry x="-1564" y="-1120" width="100" height="40" as="geometry" />
        </mxCell>
        <mxCell id="VzMww5PxV1IO6Oh9PiyG-7" value="Data Nascimento" style="ellipse;whiteSpace=wrap;html=1;align=center;" parent="1" vertex="1">
          <mxGeometry x="-1206.5" y="-885" width="100" height="40" as="geometry" />
        </mxCell>
        <mxCell id="VzMww5PxV1IO6Oh9PiyG-8" value="Endereço" style="ellipse;whiteSpace=wrap;html=1;align=center;" parent="1" vertex="1">
          <mxGeometry x="-1047.75" y="-1060" width="100" height="40" as="geometry" />
        </mxCell>
        <mxCell id="VzMww5PxV1IO6Oh9PiyG-9" value="Sexo" style="ellipse;whiteSpace=wrap;html=1;align=center;" parent="1" vertex="1">
          <mxGeometry x="-1306.5" y="-965" width="100" height="40" as="geometry" />
        </mxCell>
        <mxCell id="VzMww5PxV1IO6Oh9PiyG-10" value="Nome" style="ellipse;whiteSpace=wrap;html=1;align=center;" parent="1" vertex="1">
          <mxGeometry x="-1266.5" y="-1025" width="100" height="40" as="geometry" />
        </mxCell>
        <mxCell id="VzMww5PxV1IO6Oh9PiyG-13" value="Idade" style="ellipse;whiteSpace=wrap;html=1;align=center;dashed=1;" parent="1" vertex="1">
          <mxGeometry x="-1080.5" y="-895" width="100" height="40" as="geometry" />
        </mxCell>
        <mxCell id="VzMww5PxV1IO6Oh9PiyG-14" value="Prim_nome" style="ellipse;whiteSpace=wrap;html=1;align=center;" parent="1" vertex="1">
          <mxGeometry x="-1326.5" y="-1065" width="70" height="40" as="geometry" />
        </mxCell>
        <mxCell id="VzMww5PxV1IO6Oh9PiyG-15" value="Sobrenome" style="ellipse;whiteSpace=wrap;html=1;align=center;" parent="1" vertex="1">
          <mxGeometry x="-1375.25" y="-1020" width="73.75" height="45" as="geometry" />
        </mxCell>
        <mxCell id="VzMww5PxV1IO6Oh9PiyG-16" value="Bairro" style="ellipse;whiteSpace=wrap;html=1;align=center;" parent="1" vertex="1">
          <mxGeometry x="-947.75" y="-1100" width="80" height="40" as="geometry" />
        </mxCell>
        <mxCell id="VzMww5PxV1IO6Oh9PiyG-17" value="Cidade" style="ellipse;whiteSpace=wrap;html=1;align=center;" parent="1" vertex="1">
          <mxGeometry x="-1035.25" y="-1120" width="82.5" height="40" as="geometry" />
        </mxCell>
        <mxCell id="VzMww5PxV1IO6Oh9PiyG-19" value="Nº" style="ellipse;whiteSpace=wrap;html=1;align=center;" parent="1" vertex="1">
          <mxGeometry x="-947.75" y="-1045" width="80" height="40" as="geometry" />
        </mxCell>
        <mxCell id="VzMww5PxV1IO6Oh9PiyG-20" value="Nome" style="ellipse;whiteSpace=wrap;html=1;align=center;" parent="1" vertex="1">
          <mxGeometry x="-1594" y="-720" width="100" height="40" as="geometry" />
        </mxCell>
        <mxCell id="VzMww5PxV1IO6Oh9PiyG-22" value="Valor" style="ellipse;whiteSpace=wrap;html=1;align=center;" parent="1" vertex="1">
          <mxGeometry x="-1406.5" y="-560" width="100" height="40" as="geometry" />
        </mxCell>
        <mxCell id="VzMww5PxV1IO6Oh9PiyG-23" value="Tamanho" style="ellipse;whiteSpace=wrap;html=1;align=center;" parent="1" vertex="1">
          <mxGeometry x="-1514" y="-550" width="100" height="40" as="geometry" />
        </mxCell>
        <mxCell id="VzMww5PxV1IO6Oh9PiyG-29" value="Codigo" style="ellipse;whiteSpace=wrap;html=1;align=center;fontStyle=4;" parent="1" vertex="1">
          <mxGeometry x="-1610" y="-647.5" width="100" height="40" as="geometry" />
        </mxCell>
        <mxCell id="VzMww5PxV1IO6Oh9PiyG-30" value="Hobby" style="ellipse;shape=doubleEllipse;margin=3;whiteSpace=wrap;html=1;align=center;" parent="1" vertex="1">
          <mxGeometry x="-1010.75" y="-1000" width="100" height="40" as="geometry" />
        </mxCell>
        <mxCell id="VzMww5PxV1IO6Oh9PiyG-33" value="Número" style="ellipse;whiteSpace=wrap;html=1;align=center;fontStyle=4;" parent="1" vertex="1">
          <mxGeometry x="-1035.25" y="-700" width="100" height="40" as="geometry" />
        </mxCell>
        <mxCell id="VzMww5PxV1IO6Oh9PiyG-37" value="Data" style="ellipse;whiteSpace=wrap;html=1;align=center;" parent="1" vertex="1">
          <mxGeometry x="-997.75" y="-635" width="100" height="40" as="geometry" />
        </mxCell>
        <mxCell id="VzMww5PxV1IO6Oh9PiyG-38" value="Nota Fiscal" style="ellipse;whiteSpace=wrap;html=1;align=center;" parent="1" vertex="1">
          <mxGeometry x="-1093.25" y="-560" width="100" height="40" as="geometry" />
        </mxCell>
        <mxCell id="VzMww5PxV1IO6Oh9PiyG-42" value="" style="endArrow=none;html=1;rounded=0;exitX=0.5;exitY=1;exitDx=0;exitDy=0;entryX=0.25;entryY=0;entryDx=0;entryDy=0;" parent="1" source="VzMww5PxV1IO6Oh9PiyG-2" target="Tkfm5KGIFP5zqyFGYU3w-9" edge="1">
          <mxGeometry relative="1" as="geometry">
            <mxPoint x="-1384" y="-1130" as="sourcePoint" />
            <mxPoint x="-1434" y="-1030" as="targetPoint" />
            <Array as="points" />
          </mxGeometry>
        </mxCell>
        <mxCell id="VzMww5PxV1IO6Oh9PiyG-43" value="" style="endArrow=none;html=1;rounded=0;exitX=0.5;exitY=1;exitDx=0;exitDy=0;entryX=0.75;entryY=0;entryDx=0;entryDy=0;" parent="1" source="usLz7VzWyeK3EHCSEz5r-34" target="Tkfm5KGIFP5zqyFGYU3w-9" edge="1">
          <mxGeometry relative="1" as="geometry">
            <mxPoint x="-1354" y="-1080" as="sourcePoint" />
            <mxPoint x="-1114" y="-170" as="targetPoint" />
          </mxGeometry>
        </mxCell>
        <mxCell id="VzMww5PxV1IO6Oh9PiyG-45" value="" style="endArrow=none;html=1;rounded=0;" parent="1" source="VzMww5PxV1IO6Oh9PiyG-15" edge="1">
          <mxGeometry relative="1" as="geometry">
            <mxPoint x="-1286.5" y="-995" as="sourcePoint" />
            <mxPoint x="-1261.25" y="-995" as="targetPoint" />
          </mxGeometry>
        </mxCell>
        <mxCell id="VzMww5PxV1IO6Oh9PiyG-46" value="" style="endArrow=none;html=1;rounded=0;exitX=0.729;exitY=0.925;exitDx=0;exitDy=0;exitPerimeter=0;entryX=0.05;entryY=0.275;entryDx=0;entryDy=0;entryPerimeter=0;" parent="1" source="VzMww5PxV1IO6Oh9PiyG-14" target="VzMww5PxV1IO6Oh9PiyG-10" edge="1">
          <mxGeometry relative="1" as="geometry">
            <mxPoint x="-886.5" y="-1065" as="sourcePoint" />
            <mxPoint x="-726.5" y="-1065" as="targetPoint" />
          </mxGeometry>
        </mxCell>
        <mxCell id="VzMww5PxV1IO6Oh9PiyG-47" value="" style="endArrow=none;html=1;rounded=0;entryX=0.5;entryY=0;entryDx=0;entryDy=0;" parent="1" source="VzMww5PxV1IO6Oh9PiyG-17" target="VzMww5PxV1IO6Oh9PiyG-8" edge="1">
          <mxGeometry relative="1" as="geometry">
            <mxPoint x="-937.75" y="-1090" as="sourcePoint" />
            <mxPoint x="-327.75" y="-1285" as="targetPoint" />
          </mxGeometry>
        </mxCell>
        <mxCell id="VzMww5PxV1IO6Oh9PiyG-48" value="" style="endArrow=none;html=1;rounded=0;exitX=0;exitY=1;exitDx=0;exitDy=0;entryX=1;entryY=0;entryDx=0;entryDy=0;" parent="1" source="VzMww5PxV1IO6Oh9PiyG-16" target="VzMww5PxV1IO6Oh9PiyG-8" edge="1">
          <mxGeometry relative="1" as="geometry">
            <mxPoint x="-487.75" y="-1285" as="sourcePoint" />
            <mxPoint x="-837.75" y="-1075" as="targetPoint" />
          </mxGeometry>
        </mxCell>
        <mxCell id="VzMww5PxV1IO6Oh9PiyG-52" value="" style="endArrow=none;html=1;rounded=0;exitX=0.99;exitY=0.7;exitDx=0;exitDy=0;exitPerimeter=0;entryX=0;entryY=0;entryDx=0;entryDy=0;" parent="1" source="VzMww5PxV1IO6Oh9PiyG-10" target="Tkfm5KGIFP5zqyFGYU3w-12" edge="1">
          <mxGeometry relative="1" as="geometry">
            <mxPoint x="-817.25" y="-1075" as="sourcePoint" />
            <mxPoint x="-657.25" y="-1075" as="targetPoint" />
          </mxGeometry>
        </mxCell>
        <mxCell id="VzMww5PxV1IO6Oh9PiyG-53" value="" style="endArrow=none;html=1;rounded=0;exitX=0;exitY=0.5;exitDx=0;exitDy=0;entryX=1;entryY=0.5;entryDx=0;entryDy=0;" parent="1" source="VzMww5PxV1IO6Oh9PiyG-30" target="Tkfm5KGIFP5zqyFGYU3w-12" edge="1">
          <mxGeometry relative="1" as="geometry">
            <mxPoint x="-877.75" y="-1070" as="sourcePoint" />
            <mxPoint x="-717.75" y="-1070" as="targetPoint" />
          </mxGeometry>
        </mxCell>
        <mxCell id="VzMww5PxV1IO6Oh9PiyG-54" value="" style="endArrow=none;html=1;rounded=0;exitX=0.5;exitY=0;exitDx=0;exitDy=0;entryX=0.25;entryY=1;entryDx=0;entryDy=0;" parent="1" source="VzMww5PxV1IO6Oh9PiyG-7" target="Tkfm5KGIFP5zqyFGYU3w-12" edge="1">
          <mxGeometry relative="1" as="geometry">
            <mxPoint x="-877.75" y="-1070" as="sourcePoint" />
            <mxPoint x="-717.75" y="-1070" as="targetPoint" />
          </mxGeometry>
        </mxCell>
        <mxCell id="VzMww5PxV1IO6Oh9PiyG-56" value="" style="endArrow=none;html=1;rounded=0;exitX=1;exitY=0.5;exitDx=0;exitDy=0;entryX=0;entryY=0.5;entryDx=0;entryDy=0;" parent="1" source="VzMww5PxV1IO6Oh9PiyG-9" target="Tkfm5KGIFP5zqyFGYU3w-12" edge="1">
          <mxGeometry relative="1" as="geometry">
            <mxPoint x="-817.25" y="-1075" as="sourcePoint" />
            <mxPoint x="-657.25" y="-1075" as="targetPoint" />
          </mxGeometry>
        </mxCell>
        <mxCell id="VzMww5PxV1IO6Oh9PiyG-57" value="" style="endArrow=none;html=1;rounded=0;exitX=1;exitY=1;exitDx=0;exitDy=0;entryX=0;entryY=0.5;entryDx=0;entryDy=0;" parent="1" source="Tkfm5KGIFP5zqyFGYU3w-12" target="IfGe2_RZmpWgjfv_gyei-1" edge="1">
          <mxGeometry relative="1" as="geometry">
            <mxPoint x="-877.75" y="-1070" as="sourcePoint" />
            <mxPoint x="-1003.1053390593274" y="-959.1421356237311" as="targetPoint" />
          </mxGeometry>
        </mxCell>
        <mxCell id="VzMww5PxV1IO6Oh9PiyG-58" value="" style="endArrow=none;html=1;rounded=0;exitX=0.779;exitY=0.925;exitDx=0;exitDy=0;entryX=0.25;entryY=0;entryDx=0;entryDy=0;exitPerimeter=0;" parent="1" source="usLz7VzWyeK3EHCSEz5r-35" target="Tkfm5KGIFP5zqyFGYU3w-12" edge="1">
          <mxGeometry relative="1" as="geometry">
            <mxPoint x="-1189" y="-1070" as="sourcePoint" />
            <mxPoint x="-717.75" y="-1070" as="targetPoint" />
          </mxGeometry>
        </mxCell>
        <mxCell id="VzMww5PxV1IO6Oh9PiyG-59" value="" style="endArrow=none;html=1;rounded=0;exitX=0;exitY=0.5;exitDx=0;exitDy=0;entryX=1;entryY=1;entryDx=0;entryDy=0;" parent="1" source="VzMww5PxV1IO6Oh9PiyG-19" target="VzMww5PxV1IO6Oh9PiyG-8" edge="1">
          <mxGeometry relative="1" as="geometry">
            <mxPoint x="-487.75" y="-1285" as="sourcePoint" />
            <mxPoint x="-327.75" y="-1285" as="targetPoint" />
          </mxGeometry>
        </mxCell>
        <mxCell id="VzMww5PxV1IO6Oh9PiyG-60" value="" style="endArrow=none;html=1;rounded=0;exitX=0.5;exitY=0;exitDx=0;exitDy=0;entryX=0.5;entryY=1;entryDx=0;entryDy=0;" parent="1" source="VzMww5PxV1IO6Oh9PiyG-23" target="Tkfm5KGIFP5zqyFGYU3w-10" edge="1">
          <mxGeometry relative="1" as="geometry">
            <mxPoint x="-1544" y="-722.5" as="sourcePoint" />
            <mxPoint x="-1384" y="-722.5" as="targetPoint" />
          </mxGeometry>
        </mxCell>
        <mxCell id="VzMww5PxV1IO6Oh9PiyG-61" value="" style="endArrow=none;html=1;rounded=0;exitX=1;exitY=0;exitDx=0;exitDy=0;entryX=0.25;entryY=1;entryDx=0;entryDy=0;" parent="1" source="IfGe2_RZmpWgjfv_gyei-2" target="Tkfm5KGIFP5zqyFGYU3w-10" edge="1">
          <mxGeometry relative="1" as="geometry">
            <mxPoint x="-1484" y="-552.5" as="sourcePoint" />
            <mxPoint x="-1424" y="-590" as="targetPoint" />
          </mxGeometry>
        </mxCell>
        <mxCell id="VzMww5PxV1IO6Oh9PiyG-62" value="" style="endArrow=none;html=1;rounded=0;entryX=0.25;entryY=0;entryDx=0;entryDy=0;exitX=1;exitY=1;exitDx=0;exitDy=0;" parent="1" source="VzMww5PxV1IO6Oh9PiyG-20" target="Tkfm5KGIFP5zqyFGYU3w-10" edge="1">
          <mxGeometry relative="1" as="geometry">
            <mxPoint x="-1464" y="-690" as="sourcePoint" />
            <mxPoint x="-1384" y="-722.5" as="targetPoint" />
          </mxGeometry>
        </mxCell>
        <mxCell id="VzMww5PxV1IO6Oh9PiyG-63" value="" style="endArrow=none;html=1;rounded=0;exitX=0.96;exitY=0.725;exitDx=0;exitDy=0;exitPerimeter=0;" parent="1" source="VzMww5PxV1IO6Oh9PiyG-29" edge="1">
          <mxGeometry relative="1" as="geometry">
            <mxPoint x="-1544" y="-722.5" as="sourcePoint" />
            <mxPoint x="-1494" y="-615" as="targetPoint" />
          </mxGeometry>
        </mxCell>
        <mxCell id="VzMww5PxV1IO6Oh9PiyG-64" value="" style="endArrow=none;html=1;rounded=0;exitX=0.68;exitY=0.98;exitDx=0;exitDy=0;entryX=0;entryY=0;entryDx=0;entryDy=0;exitPerimeter=0;" parent="1" source="Tkfm5KGIFP5zqyFGYU3w-10" target="VzMww5PxV1IO6Oh9PiyG-22" edge="1">
          <mxGeometry relative="1" as="geometry">
            <mxPoint x="-1544" y="-722.5" as="sourcePoint" />
            <mxPoint x="-1314" y="-542.5" as="targetPoint" />
          </mxGeometry>
        </mxCell>
        <mxCell id="VzMww5PxV1IO6Oh9PiyG-67" value="" style="endArrow=none;html=1;rounded=0;exitX=0;exitY=0.5;exitDx=0;exitDy=0;entryX=1;entryY=0.5;entryDx=0;entryDy=0;" parent="1" source="VzMww5PxV1IO6Oh9PiyG-37" target="Tkfm5KGIFP5zqyFGYU3w-11" edge="1">
          <mxGeometry relative="1" as="geometry">
            <mxPoint x="-1416.5" y="-362.5" as="sourcePoint" />
            <mxPoint x="-1256.5" y="-362.5" as="targetPoint" />
          </mxGeometry>
        </mxCell>
        <mxCell id="VzMww5PxV1IO6Oh9PiyG-70" value="" style="endArrow=none;html=1;rounded=0;entryX=0.75;entryY=1;entryDx=0;entryDy=0;exitX=0.5;exitY=0;exitDx=0;exitDy=0;" parent="1" source="VzMww5PxV1IO6Oh9PiyG-38" target="Tkfm5KGIFP5zqyFGYU3w-11" edge="1">
          <mxGeometry relative="1" as="geometry">
            <mxPoint x="-1078" y="-560" as="sourcePoint" />
            <mxPoint x="-1256.5" y="-362.5" as="targetPoint" />
          </mxGeometry>
        </mxCell>
        <mxCell id="VzMww5PxV1IO6Oh9PiyG-72" value="" style="endArrow=none;html=1;rounded=0;exitX=1;exitY=0;exitDx=0;exitDy=0;entryX=0;entryY=1;entryDx=0;entryDy=0;" parent="1" source="Tkfm5KGIFP5zqyFGYU3w-11" target="VzMww5PxV1IO6Oh9PiyG-33" edge="1">
          <mxGeometry relative="1" as="geometry">
            <mxPoint x="-1416.5" y="-362.5" as="sourcePoint" />
            <mxPoint x="-1156.25" y="-710" as="targetPoint" />
          </mxGeometry>
        </mxCell>
        <mxCell id="VzMww5PxV1IO6Oh9PiyG-73" value="POSSUI" style="shape=rhombus;perimeter=rhombusPerimeter;whiteSpace=wrap;html=1;align=center;fillColor=#f5f5f5;fontColor=#333333;strokeColor=#666666;fontStyle=1;fontSize=11;" parent="1" vertex="1">
          <mxGeometry x="-1505.25" y="-965" width="130" height="60" as="geometry" />
        </mxCell>
        <mxCell id="Menlp_lEHqC7IgFy6oZM-38" value="" style="endArrow=none;html=1;rounded=0;fontSize=10;exitX=0.5;exitY=0;exitDx=0;exitDy=0;entryX=0.5;entryY=1;entryDx=0;entryDy=0;" parent="1" source="VzMww5PxV1IO6Oh9PiyG-73" target="Tkfm5KGIFP5zqyFGYU3w-9" edge="1">
          <mxGeometry relative="1" as="geometry">
            <mxPoint x="-724" y="-50" as="sourcePoint" />
            <mxPoint x="-564" y="-50" as="targetPoint" />
          </mxGeometry>
        </mxCell>
        <mxCell id="R3YSgcDRTzF9kE0kTYUh-3" value="" style="endArrow=none;html=1;rounded=0;entryX=0;entryY=0.5;entryDx=0;entryDy=0;exitX=1;exitY=0.5;exitDx=0;exitDy=0;" parent="1" source="Tkfm5KGIFP5zqyFGYU3w-10" target="usLz7VzWyeK3EHCSEz5r-10" edge="1">
          <mxGeometry relative="1" as="geometry">
            <mxPoint x="-1264" y="-300" as="sourcePoint" />
            <mxPoint x="-1224" y="-632.5" as="targetPoint" />
            <Array as="points" />
          </mxGeometry>
        </mxCell>
        <mxCell id="yCNj54rbGJSRNF_BgYbG-1" value="FORNECEDOR" style="whiteSpace=wrap;html=1;align=center;fillColor=#dae8fc;strokeColor=#6c8ebf;fontSize=10;" parent="1" vertex="1">
          <mxGeometry x="-1490.25" y="-850" width="100" height="50" as="geometry" />
        </mxCell>
        <mxCell id="yCNj54rbGJSRNF_BgYbG-4" value="CNPJ" style="ellipse;whiteSpace=wrap;html=1;align=center;fontStyle=4;" parent="1" vertex="1">
          <mxGeometry x="-1605.25" y="-890" width="100" height="40" as="geometry" />
        </mxCell>
        <mxCell id="yCNj54rbGJSRNF_BgYbG-5" value="" style="endArrow=none;html=1;rounded=0;exitX=0;exitY=0.75;exitDx=0;exitDy=0;entryX=1;entryY=0;entryDx=0;entryDy=0;" parent="1" source="yCNj54rbGJSRNF_BgYbG-1" target="usLz7VzWyeK3EHCSEz5r-33" edge="1">
          <mxGeometry relative="1" as="geometry">
            <mxPoint x="-1434" y="-800" as="sourcePoint" />
            <mxPoint x="-1510" y="-790" as="targetPoint" />
          </mxGeometry>
        </mxCell>
        <mxCell id="yCNj54rbGJSRNF_BgYbG-6" value="" style="endArrow=none;html=1;rounded=0;entryX=1;entryY=1;entryDx=0;entryDy=0;exitX=0;exitY=0.25;exitDx=0;exitDy=0;" parent="1" source="yCNj54rbGJSRNF_BgYbG-1" target="yCNj54rbGJSRNF_BgYbG-4" edge="1">
          <mxGeometry relative="1" as="geometry">
            <mxPoint x="-1434" y="-800" as="sourcePoint" />
            <mxPoint x="-1510" y="-860" as="targetPoint" />
          </mxGeometry>
        </mxCell>
        <mxCell id="yCNj54rbGJSRNF_BgYbG-16" value="Cliente ID" style="ellipse;whiteSpace=wrap;html=1;align=center;fontStyle=4;" parent="1" vertex="1">
          <mxGeometry x="-1150.25" y="-1065" width="100" height="40" as="geometry" />
        </mxCell>
        <mxCell id="yCNj54rbGJSRNF_BgYbG-17" value="" style="endArrow=none;html=1;rounded=0;exitX=0.5;exitY=1;exitDx=0;exitDy=0;entryX=0.5;entryY=0;entryDx=0;entryDy=0;" parent="1" source="yCNj54rbGJSRNF_BgYbG-16" target="Tkfm5KGIFP5zqyFGYU3w-12" edge="1">
          <mxGeometry relative="1" as="geometry">
            <mxPoint x="-1173.75" y="-1060" as="sourcePoint" />
            <mxPoint x="-1092.75" y="-980" as="targetPoint" />
          </mxGeometry>
        </mxCell>
        <mxCell id="yCNj54rbGJSRNF_BgYbG-18" value="" style="endArrow=none;html=1;rounded=0;exitX=0.5;exitY=1;exitDx=0;exitDy=0;entryX=0.5;entryY=0;entryDx=0;entryDy=0;" parent="1" source="Tkfm5KGIFP5zqyFGYU3w-2" target="Tkfm5KGIFP5zqyFGYU3w-11" edge="1">
          <mxGeometry relative="1" as="geometry">
            <mxPoint x="-709" y="-40" as="sourcePoint" />
            <mxPoint x="-234" y="-375" as="targetPoint" />
          </mxGeometry>
        </mxCell>
        <mxCell id="yCNj54rbGJSRNF_BgYbG-24" value="" style="endArrow=none;html=1;rounded=0;exitX=0.5;exitY=1;exitDx=0;exitDy=0;entryX=0.5;entryY=0;entryDx=0;entryDy=0;" parent="1" source="Tkfm5KGIFP5zqyFGYU3w-12" target="Tkfm5KGIFP5zqyFGYU3w-2" edge="1">
          <mxGeometry relative="1" as="geometry">
            <mxPoint x="-574" y="43" as="sourcePoint" />
            <mxPoint x="-99" y="-305" as="targetPoint" />
          </mxGeometry>
        </mxCell>
        <mxCell id="Tkfm5KGIFP5zqyFGYU3w-2" value="FAZ" style="shape=rhombus;perimeter=rhombusPerimeter;whiteSpace=wrap;align=center;fillColor=#f5f5f5;fontColor=#333333;strokeColor=#666666;fontSize=10;verticalAlign=middle;labelPosition=center;verticalLabelPosition=middle;html=1;fontStyle=1" parent="1" vertex="1">
          <mxGeometry x="-1143.5" y="-810" width="90" height="60" as="geometry" />
        </mxCell>
        <mxCell id="yCNj54rbGJSRNF_BgYbG-26" value="" style="endArrow=none;html=1;rounded=0;exitX=0;exitY=1;exitDx=0;exitDy=0;entryX=1;entryY=0.5;entryDx=0;entryDy=0;" parent="1" source="Tkfm5KGIFP5zqyFGYU3w-12" target="yCNj54rbGJSRNF_BgYbG-25" edge="1">
          <mxGeometry relative="1" as="geometry">
            <mxPoint x="-892.25" y="-1015" as="sourcePoint" />
            <mxPoint x="-1282" y="-850" as="targetPoint" />
          </mxGeometry>
        </mxCell>
        <mxCell id="yCNj54rbGJSRNF_BgYbG-25" value="CADASTRO" style="shape=rhombus;perimeter=rhombusPerimeter;whiteSpace=wrap;align=center;fillColor=#f5f5f5;fontColor=#333333;strokeColor=#666666;fontSize=10;verticalAlign=middle;labelPosition=center;verticalLabelPosition=middle;html=1;fontStyle=1" parent="1" vertex="1">
          <mxGeometry x="-1346.5" y="-880" width="90" height="60" as="geometry" />
        </mxCell>
        <mxCell id="yCNj54rbGJSRNF_BgYbG-32" value="" style="edgeStyle=orthogonalEdgeStyle;rounded=0;orthogonalLoop=1;jettySize=auto;html=1;endArrow=none;endFill=0;exitX=0.5;exitY=0;exitDx=0;exitDy=0;" parent="1" source="yCNj54rbGJSRNF_BgYbG-1" target="VzMww5PxV1IO6Oh9PiyG-73" edge="1">
          <mxGeometry relative="1" as="geometry">
            <mxPoint x="-1314" y="-570" as="sourcePoint" />
          </mxGeometry>
        </mxCell>
        <mxCell id="usLz7VzWyeK3EHCSEz5r-6" value="" style="endArrow=none;html=1;rounded=0;entryX=0.75;entryY=1;entryDx=0;entryDy=0;exitX=0.28;exitY=0.05;exitDx=0;exitDy=0;exitPerimeter=0;" parent="1" source="VzMww5PxV1IO6Oh9PiyG-13" target="Tkfm5KGIFP5zqyFGYU3w-12" edge="1">
          <mxGeometry width="50" height="50" relative="1" as="geometry">
            <mxPoint x="-1060.5" y="-895" as="sourcePoint" />
            <mxPoint x="-1227.75" y="-855" as="targetPoint" />
          </mxGeometry>
        </mxCell>
        <mxCell id="usLz7VzWyeK3EHCSEz5r-9" value="" style="endArrow=none;html=1;rounded=0;entryX=0.263;entryY=0.925;entryDx=0;entryDy=0;exitX=0.888;exitY=-0.035;exitDx=0;exitDy=0;exitPerimeter=0;entryPerimeter=0;" parent="1" source="Tkfm5KGIFP5zqyFGYU3w-12" target="VzMww5PxV1IO6Oh9PiyG-8" edge="1">
          <mxGeometry width="50" height="50" relative="1" as="geometry">
            <mxPoint x="-1277.75" y="-805" as="sourcePoint" />
            <mxPoint x="-1227.75" y="-855" as="targetPoint" />
          </mxGeometry>
        </mxCell>
        <mxCell id="usLz7VzWyeK3EHCSEz5r-10" value="ITEM" style="shape=rhombus;perimeter=rhombusPerimeter;whiteSpace=wrap;align=center;fillColor=#f5f5f5;fontColor=#333333;strokeColor=#666666;fontSize=10;verticalAlign=middle;labelPosition=center;verticalLabelPosition=middle;html=1;fontStyle=1" parent="1" vertex="1">
          <mxGeometry x="-1310" y="-645" width="90" height="60" as="geometry" />
        </mxCell>
        <mxCell id="usLz7VzWyeK3EHCSEz5r-11" value="" style="endArrow=none;html=1;rounded=0;entryX=1;entryY=0.5;entryDx=0;entryDy=0;exitX=0;exitY=0.5;exitDx=0;exitDy=0;" parent="1" source="Tkfm5KGIFP5zqyFGYU3w-11" target="usLz7VzWyeK3EHCSEz5r-10" edge="1">
          <mxGeometry relative="1" as="geometry">
            <mxPoint x="-1416.5" y="-587" as="sourcePoint" />
            <mxPoint x="-1249" y="-632.5" as="targetPoint" />
            <Array as="points" />
          </mxGeometry>
        </mxCell>
        <mxCell id="usLz7VzWyeK3EHCSEz5r-14" value="" style="endArrow=none;html=1;rounded=0;entryX=0.5;entryY=1;entryDx=0;entryDy=0;exitX=0.5;exitY=0;exitDx=0;exitDy=0;" parent="1" source="Tkfm5KGIFP5zqyFGYU3w-10" target="usLz7VzWyeK3EHCSEz5r-15" edge="1">
          <mxGeometry relative="1" as="geometry">
            <mxPoint x="-1386.5" y="-769.5" as="sourcePoint" />
            <mxPoint x="-1186.5" y="-492.5" as="targetPoint" />
            <Array as="points" />
          </mxGeometry>
        </mxCell>
        <mxCell id="usLz7VzWyeK3EHCSEz5r-15" value="FORNECE" style="shape=rhombus;perimeter=rhombusPerimeter;whiteSpace=wrap;align=center;fillColor=#f5f5f5;fontColor=#333333;strokeColor=#666666;fontSize=10;verticalAlign=middle;labelPosition=center;verticalLabelPosition=middle;html=1;fontStyle=1" parent="1" vertex="1">
          <mxGeometry x="-1493.75" y="-770" width="107.5" height="60" as="geometry" />
        </mxCell>
        <mxCell id="usLz7VzWyeK3EHCSEz5r-16" value="" style="endArrow=none;html=1;rounded=0;entryX=0.5;entryY=0;entryDx=0;entryDy=0;exitX=0.5;exitY=1;exitDx=0;exitDy=0;" parent="1" source="yCNj54rbGJSRNF_BgYbG-1" target="usLz7VzWyeK3EHCSEz5r-15" edge="1">
          <mxGeometry relative="1" as="geometry">
            <mxPoint x="-1001.5" y="-732.5" as="sourcePoint" />
            <mxPoint x="-1246.5" y="-782.5" as="targetPoint" />
            <Array as="points" />
          </mxGeometry>
        </mxCell>
        <mxCell id="usLz7VzWyeK3EHCSEz5r-19" value="" style="endArrow=none;html=1;rounded=0;exitX=1;exitY=0.5;exitDx=0;exitDy=0;entryX=0;entryY=0.5;entryDx=0;entryDy=0;" parent="1" source="yCNj54rbGJSRNF_BgYbG-1" target="yCNj54rbGJSRNF_BgYbG-25" edge="1">
          <mxGeometry width="50" height="50" relative="1" as="geometry">
            <mxPoint x="-1304" y="-800" as="sourcePoint" />
            <mxPoint x="-1254" y="-850" as="targetPoint" />
          </mxGeometry>
        </mxCell>
        <mxCell id="usLz7VzWyeK3EHCSEz5r-21" value="N" style="text;html=1;strokeColor=none;fillColor=none;align=center;verticalAlign=middle;whiteSpace=wrap;rounded=0;" parent="1" vertex="1">
          <mxGeometry x="-1444" y="-1015" width="30" height="30" as="geometry" />
        </mxCell>
        <mxCell id="usLz7VzWyeK3EHCSEz5r-22" value="N" style="text;html=1;strokeColor=none;fillColor=none;align=center;verticalAlign=middle;whiteSpace=wrap;rounded=0;" parent="1" vertex="1">
          <mxGeometry x="-1444" y="-880" width="30" height="30" as="geometry" />
        </mxCell>
        <mxCell id="usLz7VzWyeK3EHCSEz5r-23" value="N" style="text;html=1;strokeColor=none;fillColor=none;align=center;verticalAlign=middle;whiteSpace=wrap;rounded=0;" parent="1" vertex="1">
          <mxGeometry x="-1395" y="-855" width="30" height="30" as="geometry" />
        </mxCell>
        <mxCell id="usLz7VzWyeK3EHCSEz5r-25" value="N" style="text;html=1;strokeColor=none;fillColor=none;align=center;verticalAlign=middle;whiteSpace=wrap;rounded=0;" parent="1" vertex="1">
          <mxGeometry x="-1444" y="-667.5" width="30" height="30" as="geometry" />
        </mxCell>
        <mxCell id="usLz7VzWyeK3EHCSEz5r-26" value="N" style="text;html=1;strokeColor=none;fillColor=none;align=center;verticalAlign=middle;whiteSpace=wrap;rounded=0;" parent="1" vertex="1">
          <mxGeometry x="-1444" y="-805" width="30" height="30" as="geometry" />
        </mxCell>
        <mxCell id="usLz7VzWyeK3EHCSEz5r-27" value="N" style="text;html=1;strokeColor=none;fillColor=none;align=center;verticalAlign=middle;whiteSpace=wrap;rounded=0;" parent="1" vertex="1">
          <mxGeometry x="-1172.75" y="-955" width="30" height="30" as="geometry" />
        </mxCell>
        <mxCell id="usLz7VzWyeK3EHCSEz5r-28" value="N" style="text;html=1;strokeColor=none;fillColor=none;align=center;verticalAlign=middle;whiteSpace=wrap;rounded=0;" parent="1" vertex="1">
          <mxGeometry x="-1177.75" y="-642.5" width="30" height="30" as="geometry" />
        </mxCell>
        <mxCell id="usLz7VzWyeK3EHCSEz5r-30" value="N" style="text;html=1;strokeColor=none;fillColor=none;align=center;verticalAlign=middle;whiteSpace=wrap;rounded=0;" parent="1" vertex="1">
          <mxGeometry x="-1093.5" y="-670" width="30" height="30" as="geometry" />
        </mxCell>
        <mxCell id="usLz7VzWyeK3EHCSEz5r-31" value="1" style="text;html=1;strokeColor=none;fillColor=none;align=center;verticalAlign=middle;whiteSpace=wrap;rounded=0;" parent="1" vertex="1">
          <mxGeometry x="-1100.75" y="-935" width="30" height="30" as="geometry" />
        </mxCell>
        <mxCell id="usLz7VzWyeK3EHCSEz5r-33" value="Nome" style="ellipse;whiteSpace=wrap;html=1;align=center;" parent="1" vertex="1">
          <mxGeometry x="-1610" y="-805" width="100" height="40" as="geometry" />
        </mxCell>
        <mxCell id="usLz7VzWyeK3EHCSEz5r-34" value="Nome" style="ellipse;whiteSpace=wrap;html=1;align=center;" parent="1" vertex="1">
          <mxGeometry x="-1430" y="-1120" width="100" height="40" as="geometry" />
        </mxCell>
        <mxCell id="usLz7VzWyeK3EHCSEz5r-35" value="CPF" style="ellipse;whiteSpace=wrap;html=1;align=center;" parent="1" vertex="1">
          <mxGeometry x="-1252" y="-1100" width="82.5" height="40" as="geometry" />
        </mxCell>
        <mxCell id="Zu0eNNCYc3_iuG06aKiV-1" value="Rua" style="ellipse;whiteSpace=wrap;html=1;" parent="1" vertex="1">
          <mxGeometry x="-1127.75" y="-1120" width="80" height="40" as="geometry" />
        </mxCell>
        <mxCell id="Zu0eNNCYc3_iuG06aKiV-2" value="" style="endArrow=none;html=1;rounded=0;" parent="1" source="Zu0eNNCYc3_iuG06aKiV-1" target="VzMww5PxV1IO6Oh9PiyG-8" edge="1">
          <mxGeometry relative="1" as="geometry">
            <mxPoint x="-1066.5" y="-1070" as="sourcePoint" />
            <mxPoint x="-1117.5" y="-1030" as="targetPoint" />
          </mxGeometry>
        </mxCell>
        <mxCell id="vWB6453YS10VL0QfFwb9-1" value="N" style="text;html=1;strokeColor=none;fillColor=none;align=center;verticalAlign=middle;whiteSpace=wrap;rounded=0;" parent="1" vertex="1">
          <mxGeometry x="-1394" y="-642.5" width="30" height="30" as="geometry" />
        </mxCell>
        <mxCell id="IfGe2_RZmpWgjfv_gyei-1" value="Telefone" style="ellipse;whiteSpace=wrap;html=1;align=center;" parent="1" vertex="1">
          <mxGeometry x="-993.25" y="-945" width="82.5" height="40" as="geometry" />
        </mxCell>
        <mxCell id="IfGe2_RZmpWgjfv_gyei-2" value="Cor" style="ellipse;whiteSpace=wrap;html=1;align=center;" parent="1" vertex="1">
          <mxGeometry x="-1614" y="-585" width="100" height="40" as="geometry" />
        </mxCell>
        <mxCell id="6-UYcEUJKiYbG470EFWn-1" value="Quantidade" style="ellipse;whiteSpace=wrap;html=1;align=center;" parent="1" vertex="1">
          <mxGeometry x="-1310" y="-707.5" width="82.5" height="40" as="geometry" />
        </mxCell>
        <mxCell id="6-UYcEUJKiYbG470EFWn-2" value="" style="endArrow=none;html=1;rounded=0;exitX=0.5;exitY=1;exitDx=0;exitDy=0;entryX=0.5;entryY=0;entryDx=0;entryDy=0;" parent="1" source="6-UYcEUJKiYbG470EFWn-1" target="usLz7VzWyeK3EHCSEz5r-10" edge="1">
          <mxGeometry relative="1" as="geometry">
            <mxPoint x="-972.5" y="-775" as="sourcePoint" />
            <mxPoint x="-1015.5" y="-739" as="targetPoint" />
            <Array as="points" />
          </mxGeometry>
        </mxCell>
      </root>
    </mxGraphModel>
  </diagram>
  <diagram id="qfddBZMNtLEKU8078x4S" name="ModeloImplementação">
    <mxGraphModel dx="1664" dy="844" grid="1" gridSize="10" guides="1" tooltips="1" connect="1" arrows="1" fold="1" page="1" pageScale="1" pageWidth="827" pageHeight="1169" math="0" shadow="0">
      <root>
        <mxCell id="0" />
        <mxCell id="1" parent="0" />
        <mxCell id="RhqD98swlsCkpaPawArI-1" value="&lt;u&gt;CNPJ&lt;/u&gt;" style="rounded=0;whiteSpace=wrap;html=1;" vertex="1" parent="1">
          <mxGeometry x="80" y="80" width="90" height="40" as="geometry" />
        </mxCell>
        <mxCell id="RhqD98swlsCkpaPawArI-2" value="Nome" style="rounded=0;whiteSpace=wrap;html=1;" vertex="1" parent="1">
          <mxGeometry x="170" y="80" width="90" height="40" as="geometry" />
        </mxCell>
        <mxCell id="RhqD98swlsCkpaPawArI-3" value="&lt;font style=&quot;font-size: 14px;&quot;&gt;Clube&lt;/font&gt;" style="text;html=1;strokeColor=none;fillColor=none;align=center;verticalAlign=middle;whiteSpace=wrap;rounded=0;" vertex="1" parent="1">
          <mxGeometry x="70" y="50" width="70" height="40" as="geometry" />
        </mxCell>
        <mxCell id="RhqD98swlsCkpaPawArI-4" value="&lt;font style=&quot;font-size: 14px;&quot;&gt;Fornecedor&lt;/font&gt;" style="text;html=1;strokeColor=none;fillColor=none;align=center;verticalAlign=middle;whiteSpace=wrap;rounded=0;" vertex="1" parent="1">
          <mxGeometry x="583" y="55" width="70" height="30" as="geometry" />
        </mxCell>
        <mxCell id="RhqD98swlsCkpaPawArI-5" value="&lt;u&gt;CNPJ&lt;/u&gt;" style="rounded=0;whiteSpace=wrap;html=1;" vertex="1" parent="1">
          <mxGeometry x="583" y="80" width="90" height="40" as="geometry" />
        </mxCell>
        <mxCell id="RhqD98swlsCkpaPawArI-6" value="Nome" style="rounded=0;whiteSpace=wrap;html=1;" vertex="1" parent="1">
          <mxGeometry x="673" y="80" width="90" height="40" as="geometry" />
        </mxCell>
        <mxCell id="RhqD98swlsCkpaPawArI-7" style="edgeStyle=orthogonalEdgeStyle;rounded=0;orthogonalLoop=1;jettySize=auto;html=1;exitX=0.5;exitY=1;exitDx=0;exitDy=0;entryX=0.413;entryY=1.025;entryDx=0;entryDy=0;entryPerimeter=0;" edge="1" parent="1" source="RhqD98swlsCkpaPawArI-8" target="RhqD98swlsCkpaPawArI-1">
          <mxGeometry relative="1" as="geometry">
            <Array as="points">
              <mxPoint x="355" y="210" />
              <mxPoint x="117" y="210" />
            </Array>
          </mxGeometry>
        </mxCell>
        <mxCell id="RhqD98swlsCkpaPawArI-8" value="&lt;u&gt;CNPJ_Clube&lt;/u&gt;" style="rounded=0;whiteSpace=wrap;html=1;" vertex="1" parent="1">
          <mxGeometry x="310" y="150" width="90" height="40" as="geometry" />
        </mxCell>
        <mxCell id="RhqD98swlsCkpaPawArI-9" style="edgeStyle=orthogonalEdgeStyle;rounded=0;orthogonalLoop=1;jettySize=auto;html=1;entryX=0.25;entryY=1;entryDx=0;entryDy=0;" edge="1" parent="1" source="RhqD98swlsCkpaPawArI-10" target="RhqD98swlsCkpaPawArI-5">
          <mxGeometry relative="1" as="geometry" />
        </mxCell>
        <mxCell id="RhqD98swlsCkpaPawArI-10" value="&lt;u&gt;CNPJ_Forne&lt;/u&gt;" style="rounded=0;whiteSpace=wrap;html=1;" vertex="1" parent="1">
          <mxGeometry x="400" y="150" width="90" height="40" as="geometry" />
        </mxCell>
        <mxCell id="RhqD98swlsCkpaPawArI-11" value="&lt;font style=&quot;font-size: 14px;&quot;&gt;Clube/Fornecedor&lt;/font&gt;" style="text;html=1;strokeColor=none;fillColor=none;align=center;verticalAlign=middle;whiteSpace=wrap;rounded=0;" vertex="1" parent="1">
          <mxGeometry x="296.5" y="120" width="145" height="30" as="geometry" />
        </mxCell>
        <mxCell id="RhqD98swlsCkpaPawArI-12" value="&lt;font style=&quot;font-size: 14px;&quot;&gt;Cliente&lt;/font&gt;" style="text;html=1;strokeColor=none;fillColor=none;align=center;verticalAlign=middle;whiteSpace=wrap;rounded=0;" vertex="1" parent="1">
          <mxGeometry x="83" y="550" width="70" height="30" as="geometry" />
        </mxCell>
        <mxCell id="RhqD98swlsCkpaPawArI-13" value="&lt;u&gt;Código&lt;/u&gt;" style="rounded=0;whiteSpace=wrap;html=1;" vertex="1" parent="1">
          <mxGeometry x="235" y="240" width="90" height="40" as="geometry" />
        </mxCell>
        <mxCell id="RhqD98swlsCkpaPawArI-14" value="Nome" style="rounded=0;whiteSpace=wrap;html=1;" vertex="1" parent="1">
          <mxGeometry x="325" y="240" width="90" height="40" as="geometry" />
        </mxCell>
        <mxCell id="RhqD98swlsCkpaPawArI-15" value="Tamanho" style="rounded=0;whiteSpace=wrap;html=1;" vertex="1" parent="1">
          <mxGeometry x="415" y="240" width="90" height="40" as="geometry" />
        </mxCell>
        <mxCell id="RhqD98swlsCkpaPawArI-16" value="Valor" style="rounded=0;whiteSpace=wrap;html=1;" vertex="1" parent="1">
          <mxGeometry x="505" y="240" width="90" height="40" as="geometry" />
        </mxCell>
        <mxCell id="RhqD98swlsCkpaPawArI-17" value="&lt;font style=&quot;font-size: 14px;&quot;&gt;Produto&lt;/font&gt;" style="text;html=1;strokeColor=none;fillColor=none;align=center;verticalAlign=middle;whiteSpace=wrap;rounded=0;" vertex="1" parent="1">
          <mxGeometry x="221.5" y="210" width="75" height="40" as="geometry" />
        </mxCell>
        <mxCell id="rh3DVcIpElAQzB7BcUAm-1" style="edgeStyle=orthogonalEdgeStyle;rounded=0;orthogonalLoop=1;jettySize=auto;html=1;exitX=0;exitY=0.5;exitDx=0;exitDy=0;entryX=0;entryY=0.5;entryDx=0;entryDy=0;" edge="1" parent="1" source="RhqD98swlsCkpaPawArI-23" target="RhqD98swlsCkpaPawArI-50">
          <mxGeometry relative="1" as="geometry" />
        </mxCell>
        <mxCell id="RhqD98swlsCkpaPawArI-23" value="&lt;u&gt;ClienteID&lt;/u&gt;" style="rounded=0;whiteSpace=wrap;html=1;" vertex="1" parent="1">
          <mxGeometry x="91" y="495" width="90" height="40" as="geometry" />
        </mxCell>
        <mxCell id="RhqD98swlsCkpaPawArI-24" value="&lt;u&gt;Hobby&lt;/u&gt;" style="rounded=0;whiteSpace=wrap;html=1;" vertex="1" parent="1">
          <mxGeometry x="181" y="495" width="90" height="40" as="geometry" />
        </mxCell>
        <mxCell id="RhqD98swlsCkpaPawArI-25" value="&lt;font style=&quot;font-size: 14px;&quot;&gt;Hobby&lt;/font&gt;" style="text;html=1;strokeColor=none;fillColor=none;align=center;verticalAlign=middle;whiteSpace=wrap;rounded=0;" vertex="1" parent="1">
          <mxGeometry x="91" y="470" width="60" height="30" as="geometry" />
        </mxCell>
        <mxCell id="RhqD98swlsCkpaPawArI-26" style="edgeStyle=orthogonalEdgeStyle;rounded=0;orthogonalLoop=1;jettySize=auto;html=1;entryX=0;entryY=0.5;entryDx=0;entryDy=0;" edge="1" parent="1" source="RhqD98swlsCkpaPawArI-27" target="RhqD98swlsCkpaPawArI-45">
          <mxGeometry relative="1" as="geometry">
            <mxPoint x="240" y="400" as="targetPoint" />
            <Array as="points">
              <mxPoint x="90" y="440" />
            </Array>
          </mxGeometry>
        </mxCell>
        <mxCell id="RhqD98swlsCkpaPawArI-27" value="&lt;u&gt;Num_Pedido&lt;/u&gt;" style="rounded=0;whiteSpace=wrap;html=1;" vertex="1" parent="1">
          <mxGeometry x="35" y="290" width="90" height="40" as="geometry" />
        </mxCell>
        <mxCell id="RhqD98swlsCkpaPawArI-28" value="&lt;u&gt;Itens&lt;/u&gt;" style="rounded=0;whiteSpace=wrap;html=1;" vertex="1" parent="1">
          <mxGeometry x="125" y="290" width="90" height="40" as="geometry" />
        </mxCell>
        <mxCell id="RhqD98swlsCkpaPawArI-32" value="&lt;font style=&quot;font-size: 14px;&quot;&gt;Itens&lt;/font&gt;" style="text;html=1;strokeColor=none;fillColor=none;align=center;verticalAlign=middle;whiteSpace=wrap;rounded=0;" vertex="1" parent="1">
          <mxGeometry x="35" y="260" width="60" height="30" as="geometry" />
        </mxCell>
        <mxCell id="RhqD98swlsCkpaPawArI-34" style="edgeStyle=orthogonalEdgeStyle;rounded=0;orthogonalLoop=1;jettySize=auto;html=1;entryX=0.5;entryY=1;entryDx=0;entryDy=0;exitX=0;exitY=0.5;exitDx=0;exitDy=0;" edge="1" parent="1" source="RhqD98swlsCkpaPawArI-35" target="RhqD98swlsCkpaPawArI-5">
          <mxGeometry relative="1" as="geometry">
            <mxPoint x="628" y="130" as="targetPoint" />
            <Array as="points">
              <mxPoint x="570" y="350" />
              <mxPoint x="570" y="290" />
              <mxPoint x="628" y="290" />
            </Array>
          </mxGeometry>
        </mxCell>
        <mxCell id="RhqD98swlsCkpaPawArI-35" value="&lt;u&gt;CNPJ_Forne&lt;/u&gt;" style="rounded=0;whiteSpace=wrap;html=1;" vertex="1" parent="1">
          <mxGeometry x="583" y="330" width="90" height="40" as="geometry" />
        </mxCell>
        <mxCell id="RhqD98swlsCkpaPawArI-36" style="edgeStyle=orthogonalEdgeStyle;rounded=0;orthogonalLoop=1;jettySize=auto;html=1;exitX=0.5;exitY=1;exitDx=0;exitDy=0;entryX=0.75;entryY=1;entryDx=0;entryDy=0;" edge="1" parent="1" source="RhqD98swlsCkpaPawArI-37" target="RhqD98swlsCkpaPawArI-13">
          <mxGeometry relative="1" as="geometry">
            <Array as="points">
              <mxPoint x="716" y="380" />
              <mxPoint x="510" y="380" />
              <mxPoint x="510" y="300" />
              <mxPoint x="303" y="300" />
            </Array>
          </mxGeometry>
        </mxCell>
        <mxCell id="RhqD98swlsCkpaPawArI-37" value="&lt;u&gt;Cod_Produto&lt;/u&gt;" style="rounded=0;whiteSpace=wrap;html=1;" vertex="1" parent="1">
          <mxGeometry x="669" y="330" width="94" height="40" as="geometry" />
        </mxCell>
        <mxCell id="RhqD98swlsCkpaPawArI-38" value="&lt;font style=&quot;font-size: 14px;&quot;&gt;Fornecedor/Produto&lt;/font&gt;" style="text;html=1;strokeColor=none;fillColor=none;align=center;verticalAlign=middle;whiteSpace=wrap;rounded=0;" vertex="1" parent="1">
          <mxGeometry x="608" y="300" width="70" height="30" as="geometry" />
        </mxCell>
        <mxCell id="RhqD98swlsCkpaPawArI-39" style="edgeStyle=orthogonalEdgeStyle;rounded=0;orthogonalLoop=1;jettySize=auto;html=1;exitX=0.5;exitY=1;exitDx=0;exitDy=0;" edge="1" parent="1" source="RhqD98swlsCkpaPawArI-38" target="RhqD98swlsCkpaPawArI-38">
          <mxGeometry relative="1" as="geometry" />
        </mxCell>
        <mxCell id="rh3DVcIpElAQzB7BcUAm-2" style="edgeStyle=orthogonalEdgeStyle;rounded=0;orthogonalLoop=1;jettySize=auto;html=1;exitX=0;exitY=0.5;exitDx=0;exitDy=0;entryX=0.75;entryY=0;entryDx=0;entryDy=0;" edge="1" parent="1" source="RhqD98swlsCkpaPawArI-41" target="RhqD98swlsCkpaPawArI-50">
          <mxGeometry relative="1" as="geometry">
            <Array as="points">
              <mxPoint x="413" y="520" />
              <mxPoint x="413" y="550" />
              <mxPoint x="156" y="550" />
            </Array>
          </mxGeometry>
        </mxCell>
        <mxCell id="RhqD98swlsCkpaPawArI-41" value="&lt;u&gt;ClienteID&lt;/u&gt;" style="rounded=0;whiteSpace=wrap;html=1;" vertex="1" parent="1">
          <mxGeometry x="476" y="500" width="90" height="40" as="geometry" />
        </mxCell>
        <mxCell id="rh3DVcIpElAQzB7BcUAm-3" style="edgeStyle=orthogonalEdgeStyle;rounded=0;orthogonalLoop=1;jettySize=auto;html=1;exitX=1;exitY=0.5;exitDx=0;exitDy=0;entryX=0.75;entryY=1;entryDx=0;entryDy=0;" edge="1" parent="1" source="RhqD98swlsCkpaPawArI-42" target="RhqD98swlsCkpaPawArI-5">
          <mxGeometry relative="1" as="geometry">
            <Array as="points">
              <mxPoint x="770" y="520" />
              <mxPoint x="770" y="160" />
              <mxPoint x="651" y="160" />
            </Array>
          </mxGeometry>
        </mxCell>
        <mxCell id="RhqD98swlsCkpaPawArI-42" value="&lt;u&gt;CNPJ_Forne&lt;/u&gt;" style="rounded=0;whiteSpace=wrap;html=1;" vertex="1" parent="1">
          <mxGeometry x="566" y="500" width="90" height="40" as="geometry" />
        </mxCell>
        <mxCell id="RhqD98swlsCkpaPawArI-43" value="&lt;font style=&quot;font-size: 14px;&quot;&gt;Cliente/Fornecedor&lt;/font&gt;" style="text;html=1;strokeColor=none;fillColor=none;align=center;verticalAlign=middle;whiteSpace=wrap;rounded=0;" vertex="1" parent="1">
          <mxGeometry x="476" y="470" width="133" height="30" as="geometry" />
        </mxCell>
        <mxCell id="RhqD98swlsCkpaPawArI-44" value="&lt;font style=&quot;font-size: 14px;&quot;&gt;Pedido&lt;/font&gt;" style="text;html=1;strokeColor=none;fillColor=none;align=center;verticalAlign=middle;whiteSpace=wrap;rounded=0;" vertex="1" parent="1">
          <mxGeometry x="165" y="390" width="60" height="30" as="geometry" />
        </mxCell>
        <mxCell id="RhqD98swlsCkpaPawArI-45" value="&lt;u&gt;Número&lt;/u&gt;" style="rounded=0;whiteSpace=wrap;html=1;" vertex="1" parent="1">
          <mxGeometry x="168" y="420" width="90" height="40" as="geometry" />
        </mxCell>
        <mxCell id="RhqD98swlsCkpaPawArI-46" value="Valor Total" style="rounded=0;whiteSpace=wrap;html=1;" vertex="1" parent="1">
          <mxGeometry x="258" y="420" width="90" height="40" as="geometry" />
        </mxCell>
        <mxCell id="RhqD98swlsCkpaPawArI-47" value="Data" style="rounded=0;whiteSpace=wrap;html=1;" vertex="1" parent="1">
          <mxGeometry x="348" y="420" width="90" height="40" as="geometry" />
        </mxCell>
        <mxCell id="RhqD98swlsCkpaPawArI-48" value="Nota Fiscal" style="rounded=0;whiteSpace=wrap;html=1;" vertex="1" parent="1">
          <mxGeometry x="438" y="420" width="90" height="40" as="geometry" />
        </mxCell>
        <mxCell id="RhqD98swlsCkpaPawArI-49" value="ClienteID" style="rounded=0;whiteSpace=wrap;html=1;" vertex="1" parent="1">
          <mxGeometry x="518" y="420" width="90" height="40" as="geometry" />
        </mxCell>
        <mxCell id="RhqD98swlsCkpaPawArI-50" value="&lt;u&gt;ClienteID&lt;/u&gt;" style="rounded=0;whiteSpace=wrap;html=1;" vertex="1" parent="1">
          <mxGeometry x="88" y="580" width="90" height="40" as="geometry" />
        </mxCell>
        <mxCell id="RhqD98swlsCkpaPawArI-51" value="Prim_Nome" style="rounded=0;whiteSpace=wrap;html=1;" vertex="1" parent="1">
          <mxGeometry x="178" y="580" width="90" height="40" as="geometry" />
        </mxCell>
        <mxCell id="RhqD98swlsCkpaPawArI-52" value="Ultim_Nome" style="rounded=0;whiteSpace=wrap;html=1;" vertex="1" parent="1">
          <mxGeometry x="268" y="580" width="90" height="40" as="geometry" />
        </mxCell>
        <mxCell id="RhqD98swlsCkpaPawArI-53" value="CPF" style="rounded=0;whiteSpace=wrap;html=1;" vertex="1" parent="1">
          <mxGeometry x="358" y="580" width="90" height="40" as="geometry" />
        </mxCell>
        <mxCell id="RhqD98swlsCkpaPawArI-54" value="Cidade" style="rounded=0;whiteSpace=wrap;html=1;" vertex="1" parent="1">
          <mxGeometry x="448" y="580" width="90" height="40" as="geometry" />
        </mxCell>
        <mxCell id="RhqD98swlsCkpaPawArI-55" value="Bairro" style="rounded=0;whiteSpace=wrap;html=1;" vertex="1" parent="1">
          <mxGeometry x="538" y="580" width="90" height="40" as="geometry" />
        </mxCell>
        <mxCell id="RhqD98swlsCkpaPawArI-56" value="Número" style="rounded=0;whiteSpace=wrap;html=1;" vertex="1" parent="1">
          <mxGeometry x="88" y="620" width="90" height="40" as="geometry" />
        </mxCell>
        <mxCell id="RhqD98swlsCkpaPawArI-57" value="Data Nascimento" style="rounded=0;whiteSpace=wrap;html=1;" vertex="1" parent="1">
          <mxGeometry x="178" y="620" width="90" height="40" as="geometry" />
        </mxCell>
        <mxCell id="RhqD98swlsCkpaPawArI-58" value="Sexo" style="rounded=0;whiteSpace=wrap;html=1;" vertex="1" parent="1">
          <mxGeometry x="268" y="620" width="90" height="40" as="geometry" />
        </mxCell>
        <mxCell id="RhqD98swlsCkpaPawArI-59" value="Rua" style="rounded=0;whiteSpace=wrap;html=1;" vertex="1" parent="1">
          <mxGeometry x="628" y="580" width="90" height="40" as="geometry" />
        </mxCell>
        <mxCell id="RhqD98swlsCkpaPawArI-60" style="edgeStyle=orthogonalEdgeStyle;rounded=0;orthogonalLoop=1;jettySize=auto;html=1;exitX=0.5;exitY=1;exitDx=0;exitDy=0;" edge="1" parent="1" source="RhqD98swlsCkpaPawArI-50" target="RhqD98swlsCkpaPawArI-50">
          <mxGeometry relative="1" as="geometry" />
        </mxCell>
        <mxCell id="T4F4eFIqCeLPNWQWESZv-1" style="edgeStyle=orthogonalEdgeStyle;rounded=0;orthogonalLoop=1;jettySize=auto;html=1;exitX=0;exitY=0.5;exitDx=0;exitDy=0;entryX=0.25;entryY=1;entryDx=0;entryDy=0;" edge="1" parent="1" source="N0bAFAcvzy_1Ogof9jdO-1" target="RhqD98swlsCkpaPawArI-13">
          <mxGeometry relative="1" as="geometry" />
        </mxCell>
        <mxCell id="N0bAFAcvzy_1Ogof9jdO-1" value="&lt;u&gt;Cod_Produto&lt;br&gt;&lt;/u&gt;" style="rounded=0;whiteSpace=wrap;html=1;" vertex="1" parent="1">
          <mxGeometry x="279" y="340" width="90" height="40" as="geometry" />
        </mxCell>
        <mxCell id="T4F4eFIqCeLPNWQWESZv-2" style="edgeStyle=orthogonalEdgeStyle;rounded=0;orthogonalLoop=1;jettySize=auto;html=1;exitX=0.5;exitY=1;exitDx=0;exitDy=0;entryX=0.9;entryY=0.05;entryDx=0;entryDy=0;entryPerimeter=0;" edge="1" parent="1" source="N0bAFAcvzy_1Ogof9jdO-2" target="RhqD98swlsCkpaPawArI-45">
          <mxGeometry relative="1" as="geometry">
            <Array as="points">
              <mxPoint x="412" y="400" />
              <mxPoint x="250" y="400" />
              <mxPoint x="250" y="420" />
              <mxPoint x="249" y="420" />
            </Array>
          </mxGeometry>
        </mxCell>
        <mxCell id="N0bAFAcvzy_1Ogof9jdO-2" value="&lt;u&gt;Num_Pedido&lt;/u&gt;" style="rounded=0;whiteSpace=wrap;html=1;" vertex="1" parent="1">
          <mxGeometry x="365" y="340" width="94" height="40" as="geometry" />
        </mxCell>
        <mxCell id="N0bAFAcvzy_1Ogof9jdO-3" value="&lt;font style=&quot;font-size: 14px;&quot;&gt;Produto/Pedido&lt;br&gt;&lt;/font&gt;" style="text;html=1;strokeColor=none;fillColor=none;align=center;verticalAlign=middle;whiteSpace=wrap;rounded=0;" vertex="1" parent="1">
          <mxGeometry x="289" y="310" width="70" height="30" as="geometry" />
        </mxCell>
        <mxCell id="N0bAFAcvzy_1Ogof9jdO-4" style="edgeStyle=orthogonalEdgeStyle;rounded=0;orthogonalLoop=1;jettySize=auto;html=1;exitX=0.5;exitY=1;exitDx=0;exitDy=0;" edge="1" parent="1">
          <mxGeometry relative="1" as="geometry">
            <mxPoint x="315.0000000000002" y="340" as="sourcePoint" />
            <mxPoint x="315.0000000000002" y="340" as="targetPoint" />
          </mxGeometry>
        </mxCell>
      </root>
    </mxGraphModel>
  </diagram>
</mxfile>
